<?xml version="1.0" encoding="utf-8"?>
<!-- Generator: Adobe Illustrator 27.1.1, SVG Export Plug-In . SVG Version: 6.00 Build 0)  -->
<svg version="1.1" id="Layer_1" xmlns="http://www.w3.org/2000/svg" xmlns:xlink="http://www.w3.org/1999/xlink" x="0px" y="0px"
	 viewBox="0 0 28 27.9" style="enable-background:new 0 0 28 27.9;" xml:space="preserve">
<style type="text/css">
	.st0{fill-rule:evenodd;clip-rule:evenodd;}
</style>
<path class="st0" d="M26.2,12.4H15.6V1.8c0-0.8-0.7-1.5-1.5-1.5c-0.8,0-1.5,0.7-1.5,1.5v10.6H1.9c-0.8,0-1.5,0.7-1.5,1.5
	c0,0.8,0.7,1.5,1.5,1.5h10.6v10.6c0,0.8,0.7,1.5,1.5,1.5c0.8,0,1.5-0.7,1.5-1.5V15.5h10.6c0.8,0,1.5-0.7,1.5-1.5
	C27.7,13.1,27,12.4,26.2,12.4z"/>
</svg>
