<?xml version="1.0" encoding="utf-8"?>
<!-- Generator: Adobe Illustrator 27.1.1, SVG Export Plug-In . SVG Version: 6.00 Build 0)  -->
<svg version="1.1" id="Layer_1" xmlns="http://www.w3.org/2000/svg" xmlns:xlink="http://www.w3.org/1999/xlink" x="0px" y="0px"
	 viewBox="0 0 28 27.9" style="enable-background:new 0 0 28 27.9;" xml:space="preserve">
<style type="text/css">
	.st0{fill:#999999;}
</style>
<path id="arrow-down-b_00000082349223011236511570000007248549565577408917_" class="st0" d="M8.9,27.1l0.2-0.2l13.1-11.4
	c0.5-0.4,0.7-1,0.7-1.6c0-0.6-0.3-1.2-0.7-1.6L9.1,1L8.9,0.8C8.7,0.7,8.4,0.6,8.2,0.6C7.4,0.6,6.8,1.2,6.8,2c0,0,0,0,0,0v24
	c0,0.7,0.6,1.4,1.3,1.4c0,0,0,0,0,0C8.4,27.3,8.7,27.2,8.9,27.1L8.9,27.1z"/>
</svg>
