<?xml version="1.0" encoding="utf-8"?>
<!-- Generator: Adobe Illustrator 27.1.1, SVG Export Plug-In . SVG Version: 6.00 Build 0)  -->
<svg version="1.1" id="Layer_1" xmlns="http://www.w3.org/2000/svg" xmlns:xlink="http://www.w3.org/1999/xlink" x="0px" y="0px"
	 viewBox="0 0 200.7 98.8" style="enable-background:new 0 0 200.7 98.8;" xml:space="preserve">
<style type="text/css">
	.st0{fill:#1B1D1D;}
</style>
<g>
	<g>
		<polygon class="st0" points="95.4,49.8 83.1,85.6 70.8,49.8 57.7,49.8 57.7,98.4 67.2,98.4 67.2,66 78.7,98.4 87.2,98.4 
			98.6,65.9 98.6,98.4 108.4,98.4 108.4,49.8 		"/>
		<path class="st0" d="M142.6,92.8c-3,3.6-7.4,5.8-13.8,5.8c-11.5,0-17.5-7.1-17.5-17.6c0-10.2,6-17.7,16.7-17.7
			c10.5,0,15.8,7.3,15.8,16.6c0,1.3-0.1,2.8-0.3,3.8H120c0.6,5.2,3.4,8.4,9,8.4c3.3,0,6.1-1.3,8.1-4.1L142.6,92.8z M135.3,78
			c-0.4-4.8-2.5-8.1-7.4-8.1c-4.9,0-7.4,3.3-7.9,8.1H135.3z"/>
		<path class="st0" d="M144.7,64h6.4V53.3l8.5,1.7v9h7.7v6.2h-7.7v16.7c0,3.4,1,5.1,5.2,5.1c0.9,0,1.8-0.1,2.5-0.2V98
			c-1.5,0.4-3.5,0.6-5.6,0.6c-7.3,0-10.5-3.6-10.5-9.9V70.2h-6.4V64z"/>
		<path class="st0" d="M169.4,94l4-5.8c3.3,2.6,7.4,4,11.4,4c4.2,0,6.6-1.3,6.6-3.7c0-2.7-3.1-3.3-8.6-4.4
			c-6.7-1.3-12.1-3.7-12.1-10.3c0-5.8,4.6-10.6,14.2-10.6c6.1,0,10.5,1.6,14.2,4.2l-3.8,5.7c-3.3-2.3-7-3.5-10.5-3.5
			c-3.8,0-5.6,1.5-5.6,3.3c0,2.5,2.5,3.1,8.2,4.2c6.2,1.2,12.4,3.2,12.4,10.2c0,6.6-5.5,11.2-15.2,11.2
			C178.2,98.6,173.2,96.8,169.4,94z"/>
	</g>
	<path class="st0" d="M200,50L200,50c0-2.7-1.8-5.2-4.4-6L52.9,0.3c-2.3-0.7-4.9,0-6.5,1.8L1.5,50.8c-1,1.1-1.5,2.5-1.5,4l0,0v44.1
		h50V9.7c0-2.6,2.5-4.4,4.9-3.7L200,50z"/>
</g>
</svg>
